<svg xmlns="http://www.w3.org/2000/svg" xmlns:xlink="http://www.w3.org/1999/xlink" width="500" zoomAndPan="magnify" viewBox="0 0 375 374.999991" height="500" preserveAspectRatio="xMidYMid meet" version="1.0"><defs><clipPath id="id1"><path d="M 6.222656 14 L 360.972656 14 L 360.972656 368.746094 L 6.222656 368.746094 Z M 6.222656 14 " clip-rule="nonzero"/></clipPath></defs><g clip-path="url(#id1)"><path fill="rgb(49.01886%, 66.668701%, 48.239136%)" d="M 183.597656 15.429688 C 178.195312 15.429688 173.113281 17.535156 169.292969 21.359375 L 13.582031 177.074219 C 9.757812 180.894531 7.652344 185.972656 7.652344 191.378906 C 7.652344 196.78125 9.757812 201.863281 13.578125 205.683594 L 169.292969 361.394531 C 173.113281 365.21875 178.195312 367.324219 183.597656 367.324219 C 189.003906 367.324219 194.082031 365.21875 197.902344 361.394531 L 353.613281 205.683594 C 357.441406 201.863281 359.542969 196.78125 359.542969 191.378906 C 359.542969 185.972656 357.441406 180.894531 353.613281 177.074219 L 197.902344 21.359375 C 194.082031 17.535156 189.003906 15.429688 183.597656 15.429688 Z M 183.597656 368.753906 C 177.8125 368.753906 172.371094 366.5 168.28125 362.40625 L 12.570312 206.695312 C 8.476562 202.605469 6.222656 197.164062 6.222656 191.378906 C 6.222656 185.589844 8.476562 180.148438 12.570312 176.0625 L 168.28125 20.347656 C 172.371094 16.253906 177.8125 14 183.597656 14 C 189.386719 14 194.828125 16.253906 198.914062 20.347656 L 354.625 176.0625 C 358.71875 180.148438 360.976562 185.589844 360.976562 191.378906 C 360.976562 197.164062 358.71875 202.605469 354.625 206.695312 L 198.914062 362.40625 C 194.828125 366.5 189.386719 368.753906 183.597656 368.753906 " fill-opacity="1" fill-rule="nonzero"/></g><path fill="rgb(49.01886%, 66.668701%, 48.239136%)" d="M 84.921875 252.339844 C 84.738281 252.339844 84.554688 252.269531 84.417969 252.128906 L 36.867188 204.585938 C 33.339844 201.058594 31.394531 196.367188 31.394531 191.378906 C 31.394531 186.386719 33.339844 181.699219 36.867188 178.171875 L 84.417969 130.625 C 84.695312 130.34375 85.148438 130.34375 85.429688 130.625 C 85.707031 130.902344 85.707031 131.355469 85.429688 131.636719 L 37.878906 179.183594 C 34.621094 182.4375 32.828125 186.769531 32.828125 191.378906 C 32.828125 195.984375 34.621094 200.316406 37.878906 203.574219 L 85.429688 251.121094 C 85.707031 251.398438 85.707031 251.851562 85.429688 252.128906 C 85.289062 252.269531 85.105469 252.339844 84.921875 252.339844 " fill-opacity="1" fill-rule="nonzero"/><path fill="rgb(49.01886%, 66.668701%, 48.239136%)" d="M 282.273438 252.339844 C 282.09375 252.339844 281.90625 252.269531 281.769531 252.128906 C 281.488281 251.851562 281.488281 251.398438 281.769531 251.121094 L 329.316406 203.574219 C 332.578125 200.316406 334.371094 195.984375 334.371094 191.378906 C 334.371094 186.769531 332.578125 182.4375 329.316406 179.183594 L 281.769531 131.636719 C 281.488281 131.355469 281.488281 130.902344 281.769531 130.625 C 282.046875 130.34375 282.5 130.34375 282.78125 130.625 L 330.328125 178.171875 C 333.859375 181.699219 335.800781 186.386719 335.800781 191.378906 C 335.800781 196.367188 333.859375 201.058594 330.328125 204.585938 L 282.78125 252.128906 C 282.640625 252.269531 282.457031 252.339844 282.273438 252.339844 " fill-opacity="1" fill-rule="nonzero"/><path fill="rgb(49.01886%, 66.668701%, 48.239136%)" d="M 231.925781 86.691406 C 231.679688 86.691406 231.441406 86.5625 231.308594 86.332031 C 231.109375 85.992188 231.226562 85.554688 231.570312 85.359375 L 233.875 84.019531 C 234.214844 83.824219 234.65625 83.9375 234.851562 84.28125 C 235.050781 84.625 234.933594 85.058594 234.589844 85.257812 L 232.285156 86.597656 C 232.171875 86.660156 232.050781 86.691406 231.925781 86.691406 " fill-opacity="1" fill-rule="nonzero"/><path fill="rgb(49.01886%, 66.668701%, 48.239136%)" d="M 219.378906 93.933594 C 219.132812 93.933594 218.890625 93.808594 218.761719 93.578125 C 218.5625 93.234375 218.679688 92.796875 219.019531 92.601562 L 228.882812 86.902344 C 229.222656 86.707031 229.660156 86.824219 229.855469 87.167969 C 230.054688 87.507812 229.9375 87.945312 229.597656 88.144531 L 219.734375 93.839844 C 219.625 93.902344 219.5 93.933594 219.378906 93.933594 " fill-opacity="1" fill-rule="nonzero"/><path fill="rgb(49.01886%, 66.668701%, 48.239136%)" d="M 225.382812 76.960938 C 225.191406 76.960938 224.992188 76.882812 224.851562 76.722656 C 224.589844 76.429688 224.613281 75.976562 224.90625 75.714844 L 226.566406 74.222656 C 226.863281 73.960938 227.3125 73.980469 227.578125 74.277344 C 227.84375 74.570312 227.820312 75.023438 227.523438 75.289062 L 225.859375 76.78125 C 225.726562 76.902344 225.554688 76.960938 225.382812 76.960938 " fill-opacity="1" fill-rule="nonzero"/><path fill="rgb(49.01886%, 66.668701%, 48.239136%)" d="M 220.878906 81.027344 C 220.683594 81.027344 220.488281 80.949219 220.347656 80.792969 C 220.082031 80.5 220.105469 80.046875 220.398438 79.78125 L 222.078125 78.265625 C 222.367188 78 222.820312 78.023438 223.085938 78.316406 C 223.351562 78.609375 223.328125 79.0625 223.035156 79.328125 L 221.355469 80.84375 C 221.222656 80.96875 221.050781 81.027344 220.878906 81.027344 " fill-opacity="1" fill-rule="nonzero"/><path fill="rgb(49.01886%, 66.668701%, 48.239136%)" d="M 209.714844 91.074219 C 209.519531 91.074219 209.324219 90.996094 209.183594 90.839844 C 208.917969 90.542969 208.945312 90.09375 209.238281 89.828125 L 217.875 82.054688 C 218.167969 81.789062 218.617188 81.816406 218.882812 82.109375 C 219.148438 82.402344 219.125 82.855469 218.832031 83.117188 L 210.191406 90.890625 C 210.054688 91.015625 209.886719 91.074219 209.714844 91.074219 " fill-opacity="1" fill-rule="nonzero"/><path fill="rgb(49.01886%, 66.668701%, 48.239136%)" d="M 212.832031 74.355469 C 212.6875 74.355469 212.542969 74.308594 212.414062 74.21875 C 212.09375 73.984375 212.023438 73.539062 212.257812 73.21875 L 217.390625 66.152344 C 217.621094 65.832031 218.070312 65.761719 218.390625 65.996094 C 218.710938 66.226562 218.78125 66.675781 218.546875 66.992188 L 213.414062 74.058594 C 213.273438 74.253906 213.058594 74.355469 212.832031 74.355469 " fill-opacity="1" fill-rule="nonzero"/><path fill="rgb(49.01886%, 66.668701%, 48.239136%)" d="M 214.042969 97.015625 C 213.792969 97.015625 213.554688 96.886719 213.421875 96.660156 C 213.226562 96.316406 213.34375 95.878906 213.683594 95.679688 L 215.90625 94.390625 C 216.25 94.195312 216.6875 94.3125 216.886719 94.65625 C 217.082031 94.996094 216.964844 95.433594 216.625 95.628906 L 214.402344 96.917969 C 214.285156 96.984375 214.164062 97.015625 214.042969 97.015625 " fill-opacity="1" fill-rule="nonzero"/><path fill="rgb(49.01886%, 66.668701%, 48.239136%)" d="M 204.253906 86.164062 C 204.109375 86.164062 203.960938 86.117188 203.835938 86.027344 C 203.515625 85.792969 203.445312 85.347656 203.675781 85.027344 L 206.480469 81.164062 C 206.710938 80.84375 207.15625 80.773438 207.480469 81.003906 C 207.796875 81.238281 207.871094 81.683594 207.636719 82.003906 L 204.835938 85.867188 C 204.691406 86.058594 204.476562 86.164062 204.253906 86.164062 " fill-opacity="1" fill-rule="nonzero"/><path fill="rgb(49.01886%, 66.668701%, 48.239136%)" d="M 203.503906 69.878906 C 203.40625 69.878906 203.308594 69.859375 203.214844 69.820312 C 202.851562 69.65625 202.691406 69.234375 202.851562 68.875 L 205.582031 62.753906 C 205.742188 62.394531 206.164062 62.230469 206.527344 62.394531 C 206.886719 62.554688 207.050781 62.976562 206.890625 63.339844 L 204.160156 69.457031 C 204.039062 69.722656 203.78125 69.878906 203.503906 69.878906 " fill-opacity="1" fill-rule="nonzero"/><path fill="rgb(49.01886%, 66.668701%, 48.239136%)" d="M 197.898438 82.480469 C 197.800781 82.480469 197.703125 82.457031 197.609375 82.414062 C 197.25 82.257812 197.085938 81.835938 197.246094 81.472656 L 198.859375 77.839844 C 199.019531 77.476562 199.441406 77.3125 199.804688 77.476562 C 200.164062 77.632812 200.324219 78.058594 200.167969 78.417969 L 198.554688 82.050781 C 198.433594 82.320312 198.175781 82.480469 197.898438 82.480469 " fill-opacity="1" fill-rule="nonzero"/><path fill="rgb(49.01886%, 66.668701%, 48.239136%)" d="M 194.394531 63.8125 C 194.347656 63.8125 194.296875 63.804688 194.246094 63.792969 C 193.863281 63.710938 193.613281 63.332031 193.695312 62.945312 L 194.851562 57.480469 C 194.933594 57.09375 195.308594 56.847656 195.699219 56.929688 C 196.085938 57.007812 196.335938 57.390625 196.25 57.773438 L 195.09375 63.242188 C 195.023438 63.578125 194.730469 63.8125 194.394531 63.8125 " fill-opacity="1" fill-rule="nonzero"/><path fill="rgb(49.01886%, 66.668701%, 48.239136%)" d="M 190.910156 80.214844 C 190.859375 80.214844 190.808594 80.207031 190.761719 80.195312 C 190.371094 80.117188 190.125 79.734375 190.207031 79.351562 L 192.082031 70.527344 C 192.167969 70.136719 192.539062 69.890625 192.933594 69.972656 C 193.316406 70.054688 193.5625 70.4375 193.480469 70.820312 L 191.605469 79.648438 C 191.539062 79.980469 191.238281 80.214844 190.910156 80.214844 " fill-opacity="1" fill-rule="nonzero"/><path fill="rgb(49.01886%, 66.668701%, 48.239136%)" d="M 183.597656 79.449219 C 183.203125 79.449219 182.882812 79.125 182.882812 78.734375 L 182.882812 73.378906 C 182.882812 72.980469 183.203125 72.664062 183.597656 72.664062 C 183.992188 72.664062 184.3125 72.980469 184.3125 73.378906 L 184.3125 78.734375 C 184.3125 79.125 183.992188 79.449219 183.597656 79.449219 " fill-opacity="1" fill-rule="nonzero"/><path fill="rgb(49.01886%, 66.668701%, 48.239136%)" d="M 183.597656 70.515625 C 183.203125 70.515625 182.882812 70.195312 182.882812 69.800781 L 182.882812 55.410156 C 182.882812 55.015625 183.203125 54.695312 183.597656 54.695312 C 183.992188 54.695312 184.3125 55.015625 184.3125 55.410156 L 184.3125 69.800781 C 184.3125 70.195312 183.992188 70.515625 183.597656 70.515625 " fill-opacity="1" fill-rule="nonzero"/><path fill="rgb(49.01886%, 66.668701%, 48.239136%)" d="M 176.289062 80.214844 C 175.957031 80.214844 175.660156 79.980469 175.589844 79.648438 L 174.121094 72.734375 C 174.042969 72.351562 174.289062 71.96875 174.671875 71.890625 C 175.058594 71.800781 175.441406 72.054688 175.523438 72.441406 L 176.988281 79.351562 C 177.070312 79.734375 176.824219 80.117188 176.4375 80.195312 C 176.386719 80.207031 176.339844 80.214844 176.289062 80.214844 " fill-opacity="1" fill-rule="nonzero"/><path fill="rgb(49.01886%, 66.668701%, 48.239136%)" d="M 173.445312 66.835938 C 173.113281 66.835938 172.816406 66.601562 172.746094 66.265625 L 171.578125 60.78125 C 171.5 60.394531 171.746094 60.015625 172.128906 59.933594 C 172.519531 59.851562 172.898438 60.101562 172.980469 60.484375 L 174.144531 65.96875 C 174.226562 66.355469 173.980469 66.738281 173.59375 66.816406 C 173.542969 66.828125 173.492188 66.835938 173.445312 66.835938 " fill-opacity="1" fill-rule="nonzero"/><path fill="rgb(49.01886%, 66.668701%, 48.239136%)" d="M 169.300781 82.480469 C 169.023438 82.480469 168.761719 82.320312 168.644531 82.054688 L 165.863281 75.8125 C 165.707031 75.453125 165.867188 75.027344 166.226562 74.867188 C 166.589844 74.707031 167.011719 74.867188 167.171875 75.230469 L 169.949219 81.472656 C 170.113281 81.832031 169.949219 82.257812 169.585938 82.414062 C 169.496094 82.457031 169.394531 82.480469 169.300781 82.480469 " fill-opacity="1" fill-rule="nonzero"/><path fill="rgb(49.01886%, 66.668701%, 48.239136%)" d="M 162.941406 86.164062 C 162.722656 86.164062 162.503906 86.058594 162.363281 85.867188 L 160.878906 83.828125 C 160.648438 83.511719 160.71875 83.0625 161.035156 82.832031 C 161.359375 82.597656 161.804688 82.667969 162.035156 82.988281 L 163.519531 85.027344 C 163.753906 85.34375 163.683594 85.792969 163.363281 86.027344 C 163.234375 86.117188 163.085938 86.164062 162.941406 86.164062 " fill-opacity="1" fill-rule="nonzero"/><path fill="rgb(49.01886%, 66.668701%, 48.239136%)" d="M 162.878906 68.0625 C 162.605469 68.0625 162.339844 67.90625 162.222656 67.640625 L 159.160156 60.753906 C 159 60.394531 159.160156 59.972656 159.523438 59.808594 C 159.886719 59.648438 160.308594 59.8125 160.464844 60.171875 L 163.527344 67.058594 C 163.691406 67.417969 163.527344 67.839844 163.167969 68.003906 C 163.074219 68.042969 162.972656 68.0625 162.878906 68.0625 " fill-opacity="1" fill-rule="nonzero"/><path fill="rgb(49.01886%, 66.668701%, 48.239136%)" d="M 159.347656 81.222656 C 159.128906 81.222656 158.910156 81.121094 158.769531 80.929688 L 154.003906 74.367188 C 153.769531 74.050781 153.839844 73.601562 154.164062 73.371094 C 154.480469 73.136719 154.929688 73.207031 155.160156 73.527344 L 159.925781 80.089844 C 160.160156 80.40625 160.089844 80.855469 159.769531 81.085938 C 159.640625 81.179688 159.492188 81.222656 159.347656 81.222656 " fill-opacity="1" fill-rule="nonzero"/><path fill="rgb(49.01886%, 66.668701%, 48.239136%)" d="M 157.472656 91.074219 C 157.304688 91.074219 157.132812 91.015625 156.996094 90.890625 L 150.8125 85.324219 C 150.519531 85.0625 150.492188 84.609375 150.757812 84.316406 C 151.019531 84.023438 151.472656 83.996094 151.765625 84.261719 L 157.953125 89.828125 C 158.246094 90.09375 158.269531 90.542969 158.003906 90.839844 C 157.863281 90.996094 157.667969 91.074219 157.472656 91.074219 " fill-opacity="1" fill-rule="nonzero"/><path fill="rgb(49.01886%, 66.668701%, 48.239136%)" d="M 153.152344 97.015625 C 153.035156 97.015625 152.910156 96.984375 152.796875 96.917969 L 138.007812 88.378906 C 137.664062 88.183594 137.550781 87.746094 137.746094 87.402344 C 137.945312 87.058594 138.378906 86.941406 138.722656 87.140625 L 153.515625 95.679688 C 153.855469 95.878906 153.972656 96.316406 153.773438 96.660156 C 153.640625 96.886719 153.402344 97.015625 153.152344 97.015625 " fill-opacity="1" fill-rule="nonzero"/><path fill="rgb(49.01886%, 66.668701%, 48.239136%)" d="M 152.414062 71.675781 C 152.191406 71.675781 151.972656 71.570312 151.835938 71.378906 L 148.648438 66.992188 C 148.417969 66.675781 148.488281 66.226562 148.808594 65.996094 C 149.125 65.765625 149.574219 65.832031 149.804688 66.152344 L 152.992188 70.535156 C 153.222656 70.859375 153.152344 71.304688 152.835938 71.539062 C 152.707031 71.628906 152.5625 71.675781 152.414062 71.675781 " fill-opacity="1" fill-rule="nonzero"/><path fill="rgb(49.01886%, 66.668701%, 48.239136%)" d="M 148.496094 82.984375 C 148.324219 82.984375 148.152344 82.925781 148.015625 82.800781 L 145.34375 80.394531 C 145.050781 80.132812 145.023438 79.679688 145.289062 79.386719 C 145.550781 79.09375 146.003906 79.066406 146.296875 79.332031 L 148.972656 81.738281 C 149.265625 82 149.289062 82.453125 149.027344 82.75 C 148.882812 82.90625 148.691406 82.984375 148.496094 82.984375 " fill-opacity="1" fill-rule="nonzero"/><path fill="rgb(49.01886%, 66.668701%, 48.239136%)" d="M 135.269531 86.683594 C 135.144531 86.683594 135.023438 86.652344 134.910156 86.585938 L 132.605469 85.261719 C 132.261719 85.0625 132.144531 84.625 132.34375 84.28125 C 132.539062 83.941406 132.976562 83.824219 133.320312 84.019531 L 135.628906 85.347656 C 135.96875 85.546875 136.085938 85.984375 135.890625 86.324219 C 135.753906 86.554688 135.515625 86.683594 135.269531 86.683594 " fill-opacity="1" fill-rule="nonzero"/><path fill="rgb(49.01886%, 66.668701%, 48.239136%)" d="M 227.046875 308.71875 C 226.875 308.71875 226.703125 308.65625 226.566406 308.53125 L 223.234375 305.53125 C 222.941406 305.269531 222.917969 304.816406 223.179688 304.523438 C 223.445312 304.230469 223.898438 304.207031 224.191406 304.46875 L 227.523438 307.46875 C 227.820312 307.734375 227.84375 308.1875 227.578125 308.480469 C 227.4375 308.636719 227.242188 308.71875 227.046875 308.71875 " fill-opacity="1" fill-rule="nonzero"/><path fill="rgb(49.01886%, 66.668701%, 48.239136%)" d="M 226.6875 294.464844 C 226.566406 294.464844 226.441406 294.433594 226.332031 294.367188 L 219.445312 290.390625 C 219.105469 290.191406 218.988281 289.757812 219.183594 289.414062 C 219.378906 289.074219 219.820312 288.957031 220.160156 289.152344 L 227.046875 293.128906 C 227.386719 293.324219 227.503906 293.765625 227.308594 294.105469 C 227.175781 294.335938 226.933594 294.464844 226.6875 294.464844 " fill-opacity="1" fill-rule="nonzero"/><path fill="rgb(49.01886%, 66.668701%, 48.239136%)" d="M 220.835938 303.132812 C 220.667969 303.132812 220.496094 303.074219 220.359375 302.949219 L 218.269531 301.066406 C 217.976562 300.804688 217.957031 300.351562 218.222656 300.058594 C 218.488281 299.765625 218.9375 299.742188 219.230469 300.003906 L 221.316406 301.886719 C 221.609375 302.152344 221.632812 302.605469 221.367188 302.898438 C 221.226562 303.054688 221.03125 303.132812 220.835938 303.132812 " fill-opacity="1" fill-rule="nonzero"/><path fill="rgb(49.01886%, 66.668701%, 48.239136%)" d="M 216.917969 288.824219 C 216.796875 288.824219 216.671875 288.792969 216.5625 288.730469 L 213.683594 287.066406 C 213.34375 286.867188 213.226562 286.433594 213.421875 286.089844 C 213.617188 285.746094 214.058594 285.628906 214.398438 285.828125 L 217.277344 287.492188 C 217.617188 287.6875 217.734375 288.125 217.535156 288.464844 C 217.40625 288.695312 217.164062 288.824219 216.917969 288.824219 " fill-opacity="1" fill-rule="nonzero"/><path fill="rgb(49.01886%, 66.668701%, 48.239136%)" d="M 216.492188 299.214844 C 216.324219 299.214844 216.152344 299.152344 216.015625 299.027344 L 209.238281 292.925781 C 208.945312 292.664062 208.917969 292.210938 209.183594 291.917969 C 209.445312 291.625 209.898438 291.601562 210.191406 291.863281 L 216.972656 297.96875 C 217.265625 298.230469 217.289062 298.683594 217.023438 298.976562 C 216.886719 299.136719 216.691406 299.214844 216.492188 299.214844 " fill-opacity="1" fill-rule="nonzero"/><path fill="rgb(49.01886%, 66.668701%, 48.239136%)" d="M 214.667969 312.359375 C 214.449219 312.359375 214.230469 312.253906 214.089844 312.0625 L 212.261719 309.542969 C 212.03125 309.222656 212.105469 308.777344 212.421875 308.542969 C 212.742188 308.3125 213.191406 308.382812 213.421875 308.707031 L 215.246094 311.222656 C 215.480469 311.542969 215.410156 311.988281 215.089844 312.222656 C 214.960938 312.3125 214.816406 312.359375 214.667969 312.359375 " fill-opacity="1" fill-rule="nonzero"/><path fill="rgb(49.01886%, 66.668701%, 48.239136%)" d="M 210.683594 306.867188 C 210.464844 306.867188 210.246094 306.765625 210.105469 306.570312 L 209.128906 305.226562 C 208.894531 304.90625 208.964844 304.457031 209.285156 304.226562 C 209.605469 303.996094 210.054688 304.066406 210.285156 304.386719 L 211.261719 305.730469 C 211.496094 306.046875 211.425781 306.5 211.105469 306.726562 C 210.976562 306.820312 210.828125 306.867188 210.683594 306.867188 " fill-opacity="1" fill-rule="nonzero"/><path fill="rgb(49.01886%, 66.668701%, 48.239136%)" d="M 207.554688 302.554688 C 207.335938 302.554688 207.117188 302.453125 206.976562 302.257812 L 203.675781 297.722656 C 203.445312 297.402344 203.515625 296.953125 203.835938 296.722656 C 204.152344 296.492188 204.601562 296.558594 204.832031 296.878906 L 208.132812 301.417969 C 208.363281 301.738281 208.296875 302.1875 207.976562 302.417969 C 207.847656 302.511719 207.703125 302.554688 207.554688 302.554688 " fill-opacity="1" fill-rule="nonzero"/><path fill="rgb(49.01886%, 66.668701%, 48.239136%)" d="M 206.171875 320.269531 C 205.894531 320.269531 205.636719 320.113281 205.519531 319.84375 L 204.667969 317.9375 C 204.507812 317.578125 204.671875 317.152344 205.03125 316.996094 C 205.394531 316.835938 205.816406 316.996094 205.976562 317.359375 L 206.824219 319.261719 C 206.984375 319.625 206.824219 320.046875 206.460938 320.207031 C 206.367188 320.25 206.269531 320.269531 206.171875 320.269531 " fill-opacity="1" fill-rule="nonzero"/><path fill="rgb(49.01886%, 66.668701%, 48.239136%)" d="M 203.761719 314.851562 C 203.484375 314.851562 203.222656 314.695312 203.105469 314.429688 L 197.246094 301.277344 C 197.085938 300.914062 197.246094 300.492188 197.605469 300.332031 C 197.972656 300.167969 198.390625 300.335938 198.550781 300.695312 L 204.410156 313.84375 C 204.574219 314.207031 204.410156 314.628906 204.046875 314.789062 C 203.953125 314.832031 203.855469 314.851562 203.761719 314.851562 " fill-opacity="1" fill-rule="nonzero"/><path fill="rgb(49.01886%, 66.668701%, 48.239136%)" d="M 195.753906 326.78125 C 195.425781 326.78125 195.128906 326.550781 195.054688 326.214844 L 191.558594 309.789062 C 191.480469 309.402344 191.722656 309.019531 192.113281 308.9375 C 192.496094 308.855469 192.878906 309.101562 192.960938 309.488281 L 196.457031 325.917969 C 196.535156 326.300781 196.289062 326.683594 195.90625 326.765625 C 195.855469 326.777344 195.804688 326.78125 195.753906 326.78125 " fill-opacity="1" fill-rule="nonzero"/><path fill="rgb(49.01886%, 66.668701%, 48.239136%)" d="M 191.46875 306.613281 C 191.136719 306.613281 190.839844 306.382812 190.773438 306.046875 L 190.207031 303.398438 C 190.125 303.011719 190.371094 302.632812 190.761719 302.550781 C 191.152344 302.46875 191.527344 302.714844 191.605469 303.101562 L 192.171875 305.75 C 192.253906 306.136719 192.003906 306.515625 191.617188 306.597656 C 191.566406 306.609375 191.519531 306.613281 191.46875 306.613281 " fill-opacity="1" fill-rule="nonzero"/><path fill="rgb(49.01886%, 66.668701%, 48.239136%)" d="M 183.597656 312.78125 C 183.203125 312.78125 182.882812 312.460938 182.882812 312.066406 L 182.882812 304.015625 C 182.882812 303.621094 183.203125 303.300781 183.597656 303.300781 C 183.992188 303.300781 184.3125 303.621094 184.3125 304.015625 L 184.3125 312.066406 C 184.3125 312.460938 183.992188 312.78125 183.597656 312.78125 " fill-opacity="1" fill-rule="nonzero"/><path fill="rgb(49.01886%, 66.668701%, 48.239136%)" d="M 183.597656 319.351562 C 183.203125 319.351562 182.882812 319.027344 182.882812 318.632812 L 182.882812 315.96875 C 182.882812 315.574219 183.203125 315.253906 183.597656 315.253906 C 183.992188 315.253906 184.3125 315.574219 184.3125 315.96875 L 184.3125 318.632812 C 184.3125 319.027344 183.992188 319.351562 183.597656 319.351562 " fill-opacity="1" fill-rule="nonzero"/><path fill="rgb(49.01886%, 66.668701%, 48.239136%)" d="M 183.597656 328.058594 C 183.203125 328.058594 182.882812 327.738281 182.882812 327.34375 L 182.882812 322.457031 C 182.882812 322.058594 183.203125 321.742188 183.597656 321.742188 C 183.992188 321.742188 184.3125 322.058594 184.3125 322.457031 L 184.3125 327.34375 C 184.3125 327.738281 183.992188 328.058594 183.597656 328.058594 " fill-opacity="1" fill-rule="nonzero"/><path fill="rgb(49.01886%, 66.668701%, 48.239136%)" d="M 174.5625 312.113281 C 174.515625 312.113281 174.464844 312.109375 174.414062 312.097656 C 174.027344 312.015625 173.777344 311.636719 173.863281 311.25 L 175.589844 303.101562 C 175.671875 302.714844 176.050781 302.464844 176.4375 302.550781 C 176.824219 302.632812 177.070312 303.011719 176.988281 303.398438 L 175.261719 311.546875 C 175.191406 311.882812 174.894531 312.113281 174.5625 312.113281 " fill-opacity="1" fill-rule="nonzero"/><path fill="rgb(49.01886%, 66.668701%, 48.239136%)" d="M 173 319.4375 C 172.949219 319.4375 172.898438 319.433594 172.847656 319.421875 C 172.460938 319.339844 172.214844 318.964844 172.296875 318.574219 L 172.835938 316.03125 C 172.914062 315.644531 173.296875 315.398438 173.683594 315.484375 C 174.070312 315.5625 174.316406 315.941406 174.234375 316.328125 L 173.699219 318.871094 C 173.625 319.207031 173.328125 319.4375 173 319.4375 " fill-opacity="1" fill-rule="nonzero"/><path fill="rgb(49.01886%, 66.668701%, 48.239136%)" d="M 167.0625 306.726562 C 166.964844 306.726562 166.867188 306.707031 166.777344 306.667969 C 166.414062 306.503906 166.25 306.082031 166.410156 305.722656 L 168.644531 300.695312 C 168.804688 300.335938 169.230469 300.167969 169.585938 300.332031 C 169.949219 300.492188 170.113281 300.914062 169.949219 301.277344 L 167.71875 306.304688 C 167.601562 306.570312 167.335938 306.726562 167.0625 306.726562 " fill-opacity="1" fill-rule="nonzero"/><path fill="rgb(49.01886%, 66.668701%, 48.239136%)" d="M 163.28125 315.210938 C 163.183594 315.210938 163.085938 315.1875 162.992188 315.148438 C 162.632812 314.988281 162.46875 314.5625 162.628906 314.203125 L 164.871094 309.175781 C 165.03125 308.816406 165.457031 308.648438 165.816406 308.8125 C 166.179688 308.972656 166.339844 309.394531 166.179688 309.757812 L 163.9375 314.785156 C 163.820312 315.050781 163.558594 315.210938 163.28125 315.210938 " fill-opacity="1" fill-rule="nonzero"/><path fill="rgb(49.01886%, 66.668701%, 48.239136%)" d="M 160.953125 300.746094 C 160.808594 300.746094 160.660156 300.703125 160.535156 300.609375 C 160.214844 300.378906 160.140625 299.933594 160.375 299.609375 L 162.355469 296.878906 C 162.585938 296.5625 163.035156 296.488281 163.351562 296.722656 C 163.675781 296.953125 163.746094 297.398438 163.511719 297.722656 L 161.53125 300.453125 C 161.390625 300.644531 161.171875 300.746094 160.953125 300.746094 " fill-opacity="1" fill-rule="nonzero"/><path fill="rgb(49.01886%, 66.668701%, 48.239136%)" d="M 159.8125 323 C 159.714844 323 159.617188 322.980469 159.523438 322.9375 C 159.160156 322.777344 159 322.355469 159.160156 321.992188 L 161.058594 317.722656 C 161.21875 317.363281 161.644531 317.199219 162.003906 317.359375 C 162.363281 317.523438 162.527344 317.945312 162.363281 318.304688 L 160.464844 322.574219 C 160.347656 322.84375 160.085938 323 159.8125 323 " fill-opacity="1" fill-rule="nonzero"/><path fill="rgb(49.01886%, 66.668701%, 48.239136%)" d="M 151.851562 298.179688 C 151.65625 298.179688 151.460938 298.101562 151.320312 297.941406 C 151.054688 297.648438 151.078125 297.195312 151.375 296.933594 L 157.003906 291.863281 C 157.296875 291.597656 157.75 291.625 158.011719 291.917969 C 158.277344 292.210938 158.253906 292.664062 157.960938 292.925781 L 152.328125 297.996094 C 152.195312 298.117188 152.023438 298.179688 151.851562 298.179688 " fill-opacity="1" fill-rule="nonzero"/><path fill="rgb(49.01886%, 66.668701%, 48.239136%)" d="M 151.949219 313.148438 C 151.804688 313.148438 151.65625 313.105469 151.53125 313.011719 C 151.207031 312.78125 151.140625 312.332031 151.371094 312.011719 L 155.675781 306.085938 C 155.90625 305.769531 156.351562 305.699219 156.671875 305.929688 C 156.992188 306.164062 157.0625 306.609375 156.832031 306.929688 L 152.527344 312.851562 C 152.386719 313.046875 152.167969 313.148438 151.949219 313.148438 " fill-opacity="1" fill-rule="nonzero"/><path fill="rgb(49.01886%, 66.668701%, 48.239136%)" d="M 146.515625 291 C 146.269531 291 146.027344 290.871094 145.894531 290.644531 C 145.699219 290.300781 145.816406 289.863281 146.15625 289.664062 L 152.796875 285.828125 C 153.140625 285.628906 153.574219 285.746094 153.773438 286.089844 C 153.972656 286.433594 153.855469 286.867188 153.515625 287.066406 L 146.871094 290.90625 C 146.761719 290.96875 146.636719 291 146.515625 291 " fill-opacity="1" fill-rule="nonzero"/><path fill="rgb(49.01886%, 66.668701%, 48.239136%)" d="M 149.226562 316.886719 C 149.082031 316.886719 148.933594 316.84375 148.808594 316.75 C 148.488281 316.519531 148.417969 316.070312 148.648438 315.753906 L 149.171875 315.035156 C 149.402344 314.71875 149.851562 314.648438 150.167969 314.878906 C 150.492188 315.109375 150.558594 315.558594 150.328125 315.875 L 149.804688 316.59375 C 149.667969 316.789062 149.449219 316.886719 149.226562 316.886719 " fill-opacity="1" fill-rule="nonzero"/><path fill="rgb(49.01886%, 66.668701%, 48.239136%)" d="M 148.316406 301.355469 C 148.121094 301.355469 147.925781 301.277344 147.78125 301.121094 C 147.519531 300.828125 147.542969 300.375 147.835938 300.109375 L 148.660156 299.367188 C 148.949219 299.105469 149.402344 299.125 149.667969 299.421875 C 149.933594 299.714844 149.910156 300.167969 149.617188 300.433594 L 148.792969 301.175781 C 148.65625 301.296875 148.488281 301.355469 148.316406 301.355469 " fill-opacity="1" fill-rule="nonzero"/><path fill="rgb(49.01886%, 66.668701%, 48.239136%)" d="M 137.226562 296.363281 C 136.976562 296.363281 136.738281 296.234375 136.605469 296.003906 C 136.40625 295.660156 136.523438 295.226562 136.867188 295.027344 L 142.714844 291.644531 C 143.058594 291.449219 143.496094 291.566406 143.695312 291.90625 C 143.894531 292.25 143.777344 292.6875 143.433594 292.882812 L 137.582031 296.265625 C 137.472656 296.332031 137.347656 296.363281 137.226562 296.363281 " fill-opacity="1" fill-rule="nonzero"/><path fill="rgb(49.01886%, 66.668701%, 48.239136%)" d="M 132.964844 298.824219 C 132.714844 298.824219 132.476562 298.695312 132.34375 298.464844 C 132.144531 298.125 132.261719 297.683594 132.605469 297.488281 L 133.648438 296.886719 C 133.988281 296.6875 134.429688 296.804688 134.625 297.148438 C 134.820312 297.488281 134.703125 297.925781 134.363281 298.125 L 133.320312 298.726562 C 133.210938 298.792969 133.085938 298.824219 132.964844 298.824219 " fill-opacity="1" fill-rule="nonzero"/></svg>